<?xml version="1.0" encoding="UTF-8"?>
<!DOCTYPE svg PUBLIC "-//W3C//DTD SVG 1.1//EN" "http://www.w3.org/Graphics/SVG/1.1/DTD/svg11.dtd">
<!-- Creator: CorelDRAW 2019 (64-Bit) -->
<svg xmlns="http://www.w3.org/2000/svg" xml:space="preserve" width="66.219mm" height="21.3738mm" version="1.1" style="shape-rendering:geometricPrecision; text-rendering:geometricPrecision; image-rendering:optimizeQuality; fill-rule:evenodd; clip-rule:evenodd"
viewBox="0 0 471.49 152.18"
 xmlns:xlink="http://www.w3.org/1999/xlink"
 xmlns:xodm="http://www.corel.com/coreldraw/odm/2003">
 <defs>
  <style type="text/css">
   <![CDATA[
    .fil1 {fill:black}
    .fil2 {fill:#FF0100}
    .fil0 {fill:black;fill-rule:nonzero}
   ]]>
  </style>
 </defs>
 <g id="Слой_x0020_1">
  <metadata id="CorelCorpID_0Corel-Layer"/>
  <g id="_2137459907776">
   <g>
    <path class="fil0" d="M34.93 133.58l-1.44 12.57 -1.61 0 0.25 -2.16c-0.77,0.82 -1.6,1.44 -2.49,1.85 -0.89,0.41 -1.83,0.62 -2.83,0.62 -1.77,0 -3.22,-0.64 -4.33,-1.93 -1.11,-1.29 -1.56,-2.85 -1.35,-4.7 0.21,-1.8 1.02,-3.35 2.44,-4.63 1.41,-1.28 3.01,-1.92 4.8,-1.92 1.03,0 1.94,0.22 2.72,0.65 0.78,0.43 1.44,1.09 1.97,1.97l0.26 -2.31 1.61 0zm-6.62 1.25c-0.9,0 -1.76,0.22 -2.56,0.66 -0.81,0.44 -1.49,1.06 -2.03,1.85 -0.54,0.8 -0.86,1.64 -0.96,2.53 -0.1,0.88 0.03,1.72 0.39,2.53 0.36,0.8 0.9,1.43 1.61,1.88 0.71,0.45 1.51,0.67 2.38,0.67 0.88,0 1.75,-0.22 2.59,-0.67 0.84,-0.45 1.52,-1.05 2.03,-1.81 0.51,-0.76 0.82,-1.61 0.93,-2.56 0.17,-1.45 -0.17,-2.66 -1.02,-3.63 -0.84,-0.97 -1.96,-1.46 -3.36,-1.46zm11.77 4l0.85 0c0.54,0 1.06,-0.18 1.56,-0.53 0.49,-0.36 0.78,-0.86 0.86,-1.52 0.06,-0.56 -0.06,-1.04 -0.38,-1.44 -0.32,-0.4 -0.86,-0.6 -1.61,-0.6 -0.88,0 -1.81,0.34 -2.77,1.02l-0.78 -1.11c1.25,-0.95 2.51,-1.42 3.8,-1.42 1.06,0 1.9,0.31 2.55,0.93 0.64,0.62 0.91,1.42 0.8,2.4 -0.15,1.3 -0.83,2.19 -2.05,2.65 1.44,0.63 2.06,1.74 1.88,3.32 -0.11,1 -0.57,1.91 -1.37,2.71 -0.8,0.8 -1.9,1.21 -3.31,1.21 -1.72,0 -3.05,-0.56 -3.97,-1.68l1.14 -1.13c0.68,0.88 1.64,1.32 2.87,1.32 0.82,0 1.5,-0.22 2.02,-0.66 0.52,-0.44 0.82,-1.02 0.9,-1.74 0.08,-0.7 -0.09,-1.27 -0.52,-1.69 -0.43,-0.43 -0.96,-0.64 -1.6,-0.64l-1 0 0.16 -1.4zm8.53 -5.25l1.61 0 -0.26 2.31c0.74,-0.88 1.55,-1.53 2.43,-1.97 0.88,-0.43 1.83,-0.65 2.86,-0.65 1.79,0 3.24,0.64 4.36,1.92 1.12,1.28 1.58,2.83 1.37,4.63 -0.21,1.85 -1.02,3.41 -2.43,4.7 -1.41,1.29 -3,1.93 -4.78,1.93 -1,0 -1.89,-0.21 -2.69,-0.62 -0.79,-0.42 -1.48,-1.04 -2.06,-1.86l-0.78 6.77 -1.61 0 1.97 -17.16zm6.34 1.25c-1.4,0 -2.63,0.49 -3.7,1.46 -1.07,0.97 -1.69,2.19 -1.85,3.63 -0.11,0.95 0.01,1.81 0.35,2.56 0.34,0.76 0.88,1.36 1.62,1.81 0.75,0.45 1.56,0.67 2.44,0.67 0.87,0 1.71,-0.22 2.53,-0.67 0.82,-0.45 1.5,-1.07 2.04,-1.88 0.55,-0.8 0.87,-1.65 0.97,-2.53 0.1,-0.89 -0.03,-1.74 -0.38,-2.53 -0.36,-0.8 -0.89,-1.42 -1.6,-1.85 -0.71,-0.44 -1.51,-0.66 -2.41,-0.66zm22.3 -1.25l-1.44 12.57 -1.61 0 0.25 -2.16c-0.77,0.82 -1.6,1.44 -2.49,1.85 -0.89,0.41 -1.83,0.62 -2.83,0.62 -1.78,0 -3.22,-0.64 -4.33,-1.93 -1.11,-1.29 -1.56,-2.85 -1.35,-4.7 0.21,-1.8 1.02,-3.35 2.44,-4.63 1.41,-1.28 3.01,-1.92 4.8,-1.92 1.03,0 1.94,0.22 2.72,0.65 0.78,0.43 1.44,1.09 1.97,1.97l0.26 -2.31 1.61 0zm-6.62 1.25c-0.9,0 -1.76,0.22 -2.56,0.66 -0.81,0.44 -1.49,1.06 -2.03,1.85 -0.54,0.8 -0.86,1.64 -0.96,2.53 -0.1,0.88 0.03,1.72 0.39,2.53 0.36,0.8 0.9,1.43 1.61,1.88 0.71,0.45 1.51,0.67 2.38,0.67 0.88,0 1.75,-0.22 2.58,-0.67 0.84,-0.45 1.52,-1.05 2.03,-1.81 0.51,-0.76 0.82,-1.61 0.93,-2.56 0.17,-1.45 -0.17,-2.66 -1.02,-3.63 -0.84,-0.97 -1.96,-1.46 -3.36,-1.46zm22.9 -6.39l-0.18 1.54c-0.79,0.13 -2.12,0.23 -4,0.28 -1.36,0.05 -2.42,0.14 -3.17,0.27 -0.75,0.14 -1.43,0.39 -2.02,0.78 -0.59,0.39 -1.12,0.97 -1.58,1.74 -0.46,0.78 -0.8,1.65 -1,2.61l-0.37 1.78c0.61,-1.44 1.45,-2.5 2.54,-3.17 1.08,-0.67 2.24,-1.01 3.47,-1.01 1.87,0 3.36,0.65 4.46,1.96 1.11,1.31 1.55,2.86 1.35,4.67 -0.21,1.79 -1.01,3.33 -2.41,4.62 -1.4,1.29 -3.04,1.94 -4.92,1.94 -1.92,0 -3.47,-0.72 -4.64,-2.15 -1.17,-1.43 -1.58,-3.69 -1.23,-6.77 0.25,-2.15 0.68,-3.77 1.29,-4.88 0.62,-1.1 1.27,-1.9 1.96,-2.38 0.69,-0.48 1.55,-0.87 2.58,-1.14 1.04,-0.28 2.94,-0.45 5.7,-0.52 0.85,-0.02 1.57,-0.08 2.16,-0.17zm-2.17 11.49c0.16,-1.39 -0.19,-2.58 -1.05,-3.58 -0.86,-1 -1.95,-1.49 -3.28,-1.49 -1.33,0 -2.53,0.5 -3.62,1.5 -1.09,1 -1.71,2.19 -1.87,3.58 -0.16,1.38 0.18,2.55 1,3.52 0.83,0.97 1.94,1.45 3.34,1.45 1.4,0 2.63,-0.49 3.68,-1.46 1.05,-0.97 1.65,-2.15 1.81,-3.53zm11.36 -6.66c1.94,0 3.47,0.7 4.58,2.1 1.01,1.27 1.42,2.78 1.22,4.53 -0.2,1.75 -0.99,3.28 -2.36,4.59 -1.37,1.31 -3.03,1.96 -4.95,1.96 -1.93,0 -3.44,-0.65 -4.51,-1.96 -1.08,-1.31 -1.51,-2.84 -1.31,-4.59 0.2,-1.74 0.95,-3.24 2.26,-4.52 1.43,-1.41 3.13,-2.11 5.08,-2.11zm-0.19 1.59c-1.34,0 -2.55,0.49 -3.63,1.48 -1.08,0.99 -1.7,2.19 -1.86,3.59 -0.1,0.9 0.02,1.75 0.37,2.53 0.35,0.78 0.88,1.38 1.58,1.81 0.7,0.43 1.5,0.64 2.39,0.64 0.9,0 1.74,-0.21 2.54,-0.64 0.8,-0.43 1.46,-1.03 1.99,-1.81 0.53,-0.79 0.85,-1.63 0.95,-2.53 0.16,-1.4 -0.19,-2.6 -1.04,-3.59 -0.85,-0.99 -1.95,-1.48 -3.29,-1.48zm8.29 -1.28l8.26 0 -0.16 1.4 -3.34 0 -1.28 11.17 -1.61 0 1.28 -11.17 -3.31 0 0.16 -1.4zm10.46 0l1.61 0 -0.61 5.29 6.46 -5.29 2.22 0 -7.01 5.73 6.08 6.83 -2.29 0 -5.12 -5.81 -0.56 0.45 -0.61 5.36 -1.61 0 1.44 -12.57zm24.4 0l-1.44 12.57 -1.61 0 0.25 -2.16c-0.77,0.82 -1.6,1.44 -2.49,1.85 -0.89,0.41 -1.83,0.62 -2.83,0.62 -1.78,0 -3.22,-0.64 -4.33,-1.93 -1.11,-1.29 -1.56,-2.85 -1.35,-4.7 0.21,-1.8 1.02,-3.35 2.44,-4.63 1.41,-1.28 3.01,-1.92 4.8,-1.92 1.03,0 1.94,0.22 2.72,0.65 0.78,0.43 1.44,1.09 1.97,1.97l0.26 -2.31 1.61 0zm-6.62 1.25c-0.9,0 -1.76,0.22 -2.56,0.66 -0.81,0.44 -1.49,1.06 -2.03,1.85 -0.54,0.8 -0.86,1.64 -0.96,2.53 -0.1,0.88 0.03,1.72 0.39,2.53 0.36,0.8 0.9,1.43 1.61,1.88 0.71,0.45 1.51,0.67 2.38,0.67 0.88,0 1.75,-0.22 2.58,-0.67 0.84,-0.45 1.52,-1.05 2.03,-1.81 0.51,-0.76 0.82,-1.61 0.93,-2.56 0.17,-1.45 -0.17,-2.66 -1.02,-3.63 -0.84,-0.97 -1.96,-1.46 -3.36,-1.46zm18.43 -1.25l-1.07 9.31 10.31 -9.31 0.13 0 -1.44 12.57 -1.61 0 1.06 -9.24 -10.23 9.24 -0.2 0 1.44 -12.57 1.61 0zm19.52 0l10.55 0 -1.44 12.57 -1.61 0 1.27 -11.05 -7.34 0 -1.27 11.05 -1.61 0 1.44 -12.57zm14.18 0l1.61 0 -0.26 2.31c0.74,-0.88 1.55,-1.53 2.43,-1.97 0.88,-0.43 1.83,-0.65 2.86,-0.65 1.79,0 3.24,0.64 4.36,1.92 1.12,1.28 1.58,2.83 1.37,4.63 -0.21,1.85 -1.02,3.41 -2.43,4.7 -1.41,1.29 -3,1.93 -4.78,1.93 -1,0 -1.89,-0.21 -2.69,-0.62 -0.79,-0.42 -1.48,-1.04 -2.06,-1.86l-0.78 6.77 -1.61 0 1.97 -17.16zm6.34 1.25c-1.4,0 -2.63,0.49 -3.7,1.46 -1.07,0.97 -1.69,2.19 -1.85,3.63 -0.11,0.95 0.01,1.81 0.35,2.56 0.34,0.76 0.88,1.36 1.62,1.81 0.75,0.45 1.56,0.67 2.44,0.67 0.87,0 1.71,-0.22 2.53,-0.67 0.82,-0.45 1.5,-1.07 2.04,-1.88 0.55,-0.8 0.87,-1.65 0.97,-2.53 0.1,-0.89 -0.03,-1.74 -0.38,-2.53 -0.36,-0.8 -0.89,-1.42 -1.6,-1.85 -0.71,-0.44 -1.51,-0.66 -2.41,-0.66zm15.78 -1.56c1.94,0 3.47,0.7 4.58,2.1 1.01,1.27 1.42,2.78 1.22,4.53 -0.2,1.75 -0.99,3.28 -2.36,4.59 -1.37,1.31 -3.03,1.96 -4.95,1.96 -1.93,0 -3.44,-0.65 -4.51,-1.96 -1.08,-1.31 -1.51,-2.84 -1.31,-4.59 0.2,-1.74 0.95,-3.24 2.26,-4.52 1.43,-1.41 3.13,-2.11 5.08,-2.11zm-0.19 1.59c-1.34,0 -2.55,0.49 -3.63,1.48 -1.08,0.99 -1.7,2.19 -1.86,3.59 -0.1,0.9 0.02,1.75 0.37,2.53 0.35,0.78 0.88,1.38 1.58,1.81 0.7,0.43 1.5,0.64 2.39,0.64 0.9,0 1.74,-0.21 2.54,-0.64 0.8,-0.43 1.46,-1.03 1.99,-1.81 0.53,-0.79 0.85,-1.63 0.95,-2.53 0.16,-1.4 -0.19,-2.6 -1.04,-3.59 -0.85,-0.99 -1.95,-1.48 -3.29,-1.48zm11.3 -1.28l-1.07 9.31 10.31 -9.31 0.13 0 -1.44 12.57 -1.61 0 1.06 -9.24 -10.23 9.24 -0.2 0 1.44 -12.57 1.61 0zm14.48 5.25l0.85 0c0.54,0 1.06,-0.18 1.56,-0.53 0.49,-0.36 0.78,-0.86 0.86,-1.52 0.06,-0.56 -0.06,-1.04 -0.38,-1.44 -0.32,-0.4 -0.86,-0.6 -1.61,-0.6 -0.88,0 -1.81,0.34 -2.77,1.02l-0.78 -1.11c1.25,-0.95 2.51,-1.42 3.8,-1.42 1.06,0 1.91,0.31 2.55,0.93 0.64,0.62 0.91,1.42 0.8,2.4 -0.15,1.3 -0.83,2.19 -2.05,2.65 1.44,0.63 2.06,1.74 1.88,3.32 -0.11,1 -0.57,1.91 -1.37,2.71 -0.8,0.8 -1.91,1.21 -3.31,1.21 -1.72,0 -3.05,-0.56 -3.97,-1.68l1.14 -1.13c0.68,0.88 1.64,1.32 2.87,1.32 0.82,0 1.5,-0.22 2.02,-0.66 0.52,-0.44 0.82,-1.02 0.9,-1.74 0.08,-0.7 -0.09,-1.27 -0.52,-1.69 -0.42,-0.43 -0.96,-0.64 -1.6,-0.64l-1 0 0.16 -1.4zm10.72 7.31l-3.66 0 1.44 -12.57 3.6 0c1.37,0 2.33,0.32 2.86,0.94 0.53,0.63 0.75,1.37 0.65,2.21 -0.15,1.27 -0.81,2.13 -1.99,2.59 1.57,0.58 2.25,1.7 2.07,3.35 -0.27,2.31 -1.92,3.47 -4.98,3.47zm-0.77 -11.17l-0.45 3.9 1.06 0c0.96,0 1.6,-0.04 1.9,-0.11 0.3,-0.08 0.6,-0.27 0.9,-0.57 0.3,-0.3 0.47,-0.7 0.53,-1.2 0.06,-0.52 -0.02,-0.95 -0.26,-1.31 -0.23,-0.35 -0.49,-0.56 -0.78,-0.62 -0.29,-0.06 -0.9,-0.09 -1.84,-0.09l-1.06 0zm-0.62 5.4l-0.5 4.4 1.74 0c0.82,0 1.41,-0.05 1.78,-0.16 0.36,-0.1 0.69,-0.33 0.98,-0.67 0.29,-0.35 0.47,-0.78 0.53,-1.32 0.08,-0.69 -0.08,-1.23 -0.46,-1.64 -0.39,-0.41 -0.94,-0.61 -1.65,-0.61l-2.41 0zm16.23 -7.1c1.94,0 3.47,0.7 4.58,2.1 1.01,1.27 1.42,2.78 1.22,4.53 -0.2,1.75 -0.99,3.28 -2.36,4.59 -1.37,1.31 -3.02,1.96 -4.95,1.96 -1.93,0 -3.44,-0.65 -4.51,-1.96 -1.08,-1.31 -1.51,-2.84 -1.31,-4.59 0.2,-1.74 0.95,-3.24 2.26,-4.52 1.43,-1.41 3.13,-2.11 5.08,-2.11zm-0.19 1.59c-1.34,0 -2.55,0.49 -3.63,1.48 -1.08,0.99 -1.7,2.19 -1.86,3.59 -0.1,0.9 0.02,1.75 0.37,2.53 0.35,0.78 0.88,1.38 1.58,1.81 0.7,0.43 1.5,0.64 2.39,0.64 0.9,0 1.74,-0.21 2.54,-0.64 0.8,-0.43 1.46,-1.03 1.99,-1.81 0.53,-0.79 0.85,-1.63 0.95,-2.53 0.16,-1.4 -0.19,-2.6 -1.04,-3.59 -0.85,-0.99 -1.95,-1.48 -3.29,-1.48zm8.52 9.91l6.13 -11.19 0.84 0 3.54 11.19 1.51 0 -0.34 2.98 -1.56 0 0.18 -1.61 -10.39 0 -0.19 1.68 -1.61 0 0.35 -3.05 1.53 0zm6.24 -8.67l-4.67 8.67 7.2 0 -2.53 -8.67zm21.16 0.08l-1.37 0.8c-0.94,-1.47 -2.38,-2.2 -4.3,-2.2 -1.54,0 -2.87,0.49 -4,1.48 -1.13,0.98 -1.77,2.17 -1.93,3.58 -0.11,0.91 0.03,1.77 0.41,2.58 0.37,0.8 0.94,1.43 1.71,1.88 0.76,0.45 1.65,0.67 2.66,0.67 1.85,0 3.45,-0.73 4.8,-2.2l1.18 0.84c-0.71,0.9 -1.6,1.6 -2.67,2.1 -1.07,0.5 -2.26,0.75 -3.56,0.75 -2,0 -3.58,-0.63 -4.75,-1.89 -1.17,-1.26 -1.65,-2.79 -1.44,-4.6 0.14,-1.21 0.58,-2.34 1.31,-3.38 0.73,-1.04 1.67,-1.85 2.81,-2.44 1.14,-0.58 2.38,-0.88 3.7,-0.88 0.84,0 1.63,0.13 2.37,0.38 0.74,0.25 1.36,0.58 1.86,0.99 0.5,0.41 0.9,0.92 1.2,1.55zm2 -2.61l8.26 0 -0.16 1.4 -3.34 0 -1.28 11.17 -1.61 0 1.28 -11.17 -3.31 0 0.16 -1.4zm12.67 12.57l-3.66 0 1.44 -12.57 3.6 0c1.37,0 2.33,0.32 2.86,0.94 0.53,0.63 0.75,1.37 0.65,2.21 -0.15,1.27 -0.81,2.13 -1.99,2.59 1.57,0.58 2.25,1.7 2.07,3.35 -0.26,2.31 -1.92,3.47 -4.98,3.47zm-0.77 -11.17l-0.45 3.9 1.06 0c0.96,0 1.6,-0.04 1.9,-0.11 0.3,-0.08 0.6,-0.27 0.9,-0.57 0.29,-0.3 0.47,-0.7 0.53,-1.2 0.06,-0.52 -0.02,-0.95 -0.26,-1.31 -0.23,-0.35 -0.49,-0.56 -0.78,-0.62 -0.29,-0.06 -0.9,-0.09 -1.84,-0.09l-1.06 0zm-0.62 5.4l-0.5 4.4 1.74 0c0.82,0 1.41,-0.05 1.78,-0.16 0.36,-0.1 0.69,-0.33 0.98,-0.67 0.29,-0.35 0.47,-0.78 0.53,-1.32 0.08,-0.69 -0.08,-1.23 -0.46,-1.64 -0.39,-0.41 -0.94,-0.61 -1.65,-0.61l-2.41 0zm16.23 -7.1c1.94,0 3.47,0.7 4.58,2.1 1.01,1.27 1.42,2.78 1.22,4.53 -0.2,1.75 -0.99,3.28 -2.36,4.59 -1.37,1.31 -3.03,1.96 -4.95,1.96 -1.93,0 -3.44,-0.65 -4.51,-1.96 -1.08,-1.31 -1.51,-2.84 -1.31,-4.59 0.2,-1.74 0.95,-3.24 2.26,-4.52 1.44,-1.41 3.13,-2.11 5.08,-2.11zm-0.19 1.59c-1.34,0 -2.55,0.49 -3.63,1.48 -1.08,0.99 -1.7,2.19 -1.86,3.59 -0.1,0.9 0.02,1.75 0.37,2.53 0.35,0.78 0.88,1.38 1.58,1.81 0.7,0.43 1.5,0.64 2.39,0.64 0.9,0 1.74,-0.21 2.54,-0.64 0.8,-0.43 1.46,-1.03 1.99,-1.81 0.53,-0.79 0.85,-1.63 0.95,-2.53 0.16,-1.4 -0.19,-2.6 -1.04,-3.59 -0.85,-0.99 -1.95,-1.48 -3.29,-1.48zm16.27 -1.28l1.61 0 -0.26 2.31c0.74,-0.88 1.55,-1.53 2.43,-1.97 0.88,-0.43 1.83,-0.65 2.86,-0.65 1.79,0 3.24,0.64 4.36,1.92 1.12,1.28 1.58,2.83 1.37,4.63 -0.21,1.85 -1.02,3.41 -2.43,4.7 -1.41,1.29 -3,1.93 -4.78,1.93 -1,0 -1.89,-0.21 -2.69,-0.62 -0.79,-0.42 -1.48,-1.04 -2.06,-1.86l-0.78 6.77 -1.61 0 1.97 -17.16zm6.34 1.25c-1.4,0 -2.63,0.49 -3.7,1.46 -1.07,0.97 -1.69,2.19 -1.85,3.63 -0.11,0.95 0.01,1.81 0.35,2.56 0.34,0.76 0.88,1.36 1.62,1.81 0.75,0.45 1.56,0.67 2.44,0.67 0.87,0 1.71,-0.22 2.53,-0.67 0.82,-0.45 1.5,-1.07 2.04,-1.88 0.55,-0.8 0.87,-1.65 0.97,-2.53 0.1,-0.89 -0.03,-1.74 -0.38,-2.53 -0.36,-0.8 -0.89,-1.42 -1.6,-1.85 -0.71,-0.44 -1.51,-0.66 -2.41,-0.66zm19.43 7.15l1.28 0.72c-0.55,0.87 -1.15,1.58 -1.8,2.11 -0.65,0.53 -1.35,0.94 -2.12,1.22 -0.77,0.28 -1.61,0.42 -2.54,0.42 -2.06,0 -3.59,-0.67 -4.59,-2.01 -1.01,-1.34 -1.41,-2.86 -1.22,-4.54 0.18,-1.59 0.84,-3.01 1.96,-4.25 1.42,-1.58 3.18,-2.37 5.27,-2.37 2.15,0 3.78,0.81 4.87,2.43 0.78,1.14 1.08,2.57 0.9,4.29l-11.36 0c-0.14,1.46 0.2,2.65 0.99,3.57 0.8,0.93 1.87,1.4 3.2,1.4 0.64,0 1.28,-0.11 1.92,-0.33 0.63,-0.22 1.18,-0.51 1.65,-0.88 0.47,-0.37 1,-0.95 1.58,-1.77zm0.4 -3.38c-0.12,-0.86 -0.36,-1.55 -0.71,-2.07 -0.36,-0.52 -0.86,-0.93 -1.51,-1.25 -0.65,-0.32 -1.35,-0.47 -2.1,-0.47 -1.24,0 -2.35,0.39 -3.33,1.19 -0.72,0.58 -1.31,1.44 -1.78,2.6l9.42 0zm5.33 -5.02l1.61 0 -0.61 5.29 6.46 -5.29 2.22 0 -7.01 5.73 6.08 6.83 -2.29 0 -5.12 -5.81 -0.56 0.45 -0.61 5.36 -1.61 0 1.44 -12.57zm21.1 12.57l-1.69 0 -3.19 -9.16 -5.23 9.16 -1.73 0 7.18 -12.57 0.29 0 4.38 12.57zm16.42 -12.57l-1.44 12.57 -1.61 0 0.25 -2.16c-0.77,0.82 -1.6,1.44 -2.49,1.85 -0.89,0.41 -1.83,0.62 -2.83,0.62 -1.77,0 -3.22,-0.64 -4.33,-1.93 -1.11,-1.29 -1.56,-2.85 -1.35,-4.7 0.21,-1.8 1.02,-3.35 2.44,-4.63 1.41,-1.28 3.01,-1.92 4.8,-1.92 1.03,0 1.94,0.22 2.72,0.65 0.78,0.43 1.44,1.09 1.97,1.97l0.26 -2.31 1.61 0zm-6.62 1.25c-0.9,0 -1.76,0.22 -2.56,0.66 -0.81,0.44 -1.49,1.06 -2.03,1.85 -0.54,0.8 -0.86,1.64 -0.96,2.53 -0.1,0.88 0.03,1.72 0.39,2.53 0.36,0.8 0.9,1.43 1.61,1.88 0.71,0.45 1.51,0.67 2.38,0.67 0.88,0 1.75,-0.22 2.58,-0.67 0.84,-0.45 1.52,-1.05 2.03,-1.81 0.51,-0.76 0.82,-1.61 0.93,-2.56 0.17,-1.45 -0.17,-2.66 -1.02,-3.63 -0.84,-0.97 -1.96,-1.46 -3.36,-1.46zm23.95 -1.25l0.46 0 2.8 12.57 -1.69 0 -2.05 -9.23 -5.9 9.23 -0.3 0 -3.78 -9.27 -4.17 9.27 -1.68 0 5.73 -12.57 0.44 0 3.95 9.83 6.2 -9.83zm8.14 4.97l1.54 0c1.23,0 2.17,0.09 2.85,0.29 0.67,0.19 1.22,0.62 1.65,1.28 0.43,0.66 0.59,1.42 0.49,2.27 -0.12,1.03 -0.58,1.92 -1.39,2.65 -0.81,0.74 -1.95,1.1 -3.42,1.1l-4.18 0 1.44 -12.57 1.6 0 -0.57 4.97zm-0.11 1.49l-0.54 4.73 1.87 0c2.2,0 3.38,-0.77 3.56,-2.3 0.05,-0.44 -0.02,-0.87 -0.21,-1.29 -0.18,-0.42 -0.5,-0.72 -0.93,-0.89 -0.43,-0.17 -1.22,-0.25 -2.37,-0.25l-1.38 0zm9.9 -6.46l1.61 0 -1.44 12.57 -1.61 0 1.44 -12.57z"/>
    <path class="fil0" d="M2.63 129.23l2.15 0 -0.35 3.09c0.99,-1.18 2.07,-2.05 3.25,-2.63 1.18,-0.58 2.45,-0.87 3.83,-0.87 2.39,0 4.33,0.86 5.84,2.58 1.5,1.71 2.12,3.78 1.84,6.2 -0.28,2.47 -1.37,4.56 -3.25,6.28 -1.88,1.72 -4.01,2.58 -6.39,2.58 -1.34,0 -2.53,-0.28 -3.59,-0.83 -1.06,-0.56 -1.98,-1.39 -2.76,-2.49l-1.04 9.06 -2.15 0 2.63 -22.96zm8.48 1.68c-1.87,0 -3.52,0.65 -4.95,1.95 -1.43,1.3 -2.26,2.92 -2.48,4.86 -0.15,1.27 0.01,2.42 0.46,3.43 0.45,1.02 1.18,1.82 2.17,2.42 1,0.6 2.09,0.89 3.26,0.89 1.16,0 2.29,-0.3 3.38,-0.9 1.09,-0.6 2,-1.44 2.73,-2.51 0.73,-1.08 1.16,-2.21 1.3,-3.38 0.14,-1.19 -0.03,-2.32 -0.51,-3.39 -0.48,-1.07 -1.19,-1.89 -2.14,-2.48 -0.95,-0.59 -2.02,-0.89 -3.22,-0.89z"/>
   </g>
   <g>
    <path class="fil1" d="M19.58 16.7l-12.67 85.23 17.43 0 12.69 -85.23 -17.45 0zm27.56 23.95l-9.04 61.28 17.78 0 5.1 -34.5c2.14,-18.48 21.67,-20.06 17.39,0l-5.18 34.5 17.62 0 5.65 -37.71c2.87,-28.59 -19.99,-30.27 -32.51,-16.92l0.96 -6.66 -17.78 0zm99.77 47.23c-16.03,-0.33 -25.64,-12.79 -24.67,-29.41 0.87,-15.32 14.3,-28.41 28.24,-27.71 13.76,0.18 23.91,9.92 24.16,26.61 -0.92,18.6 -13.34,29.87 -27.73,30.51zm0.43 15.47c-43.86,-1.04 -42.84,-34.67 -43.24,-44.45 2.85,-40.05 38.14,-44.52 47.72,-43.8 37.49,0.03 39.87,30.44 40.51,42.98 -0.16,18.51 -11.47,43.13 -45,45.27zm57.53 -34.35l4.16 -28.35 17.7 0 -4.47 31.96c-2.53,16.21 18.12,18.33 20.83,0l4.3 -31.96 17.94 0 -4.61 32.51c-2.4,19.51 -11.29,30.36 -28.98,30.24 -22.49,-1.25 -28.19,-15.17 -26.87,-34.39zm71.59 -28.35l-2.35 17.47 7.13 0 -6.43 43.82 17.31 0 6.82 -43.58 7.99 0 2.59 -17.7 -8.46 0 3.45 -21.77 -17.47 0 -3.29 21.77 -7.28 0z"/>
    <path class="fil2" d="M353.78 16.53l-45.79 85.41 18.09 0 9.13 -16.87 31.57 0 4.06 16.87 16.84 0 -21.53 -85.41 -12.38 0zm3.05 28.51l-13.47 24.83 19.66 0 -6.19 -24.83zm82.48 51.89c-15.32,11.6 -40.6,8.92 -41.67,-21.74 -0.43,-29.12 27.1,-48.05 48.75,-26.78l7.17 -48.41 17.92 0 -15.13 101.88 -17.76 0 0.72 -4.95zm-23.81 -25.22c2.81,-20.6 27.96,-21.25 27.73,-1.41 0.27,20.12 -27.49,26.13 -27.73,1.41z"/>
   </g>
   <polygon class="fil2" points="454.71,112.99 3.88,112.96 3.06,119.81 453.85,119.81 "/>
  </g>
 </g>
</svg>
