<?xml version="1.0" encoding="UTF-8"?>
<!DOCTYPE svg PUBLIC "-//W3C//DTD SVG 1.1//EN" "http://www.w3.org/Graphics/SVG/1.1/DTD/svg11.dtd">
<!-- Creator: CorelDRAW 2019 (64-Bit) -->
<svg xmlns="http://www.w3.org/2000/svg" xml:space="preserve" width="61.487mm" height="9.9915mm" version="1.1" style="shape-rendering:geometricPrecision; text-rendering:geometricPrecision; image-rendering:optimizeQuality; fill-rule:evenodd; clip-rule:evenodd"
viewBox="0 0 277.4 45.08"
 xmlns:xlink="http://www.w3.org/1999/xlink"
 xmlns:xodm="http://www.corel.com/coreldraw/odm/2003">
 <defs>
  <style type="text/css">
   <![CDATA[
    .fil0 {fill:#FFED00}
    .fil1 {fill:black;fill-rule:nonzero}
   ]]>
  </style>
 </defs>
 <g id="Слой_x0020_1">
  <metadata id="CorelCorpID_0Corel-Layer"/>
  <g id="_2137224868288">
   <path class="fil0" d="M22.54 0l232.32 0c12.4,0 22.54,10.14 22.54,22.54l0 0c0,12.4 -10.14,22.54 -22.54,22.54l-232.32 0c-12.4,0 -22.54,-10.14 -22.54,-22.54l0 -0c0,-12.4 10.14,-22.54 22.54,-22.54z"/>
   <path class="fil1" d="M67.53 14.69l-2.18 2.02c-0.47,-0.54 -1.05,-0.96 -1.72,-1.25 -0.68,-0.29 -1.41,-0.44 -2.21,-0.44 -1.11,0 -2.18,0.28 -3.2,0.85 -1.02,0.57 -1.81,1.32 -2.38,2.26 -0.57,0.94 -0.85,1.94 -0.85,2.99 0,1.44 0.5,2.64 1.5,3.6 0.99,0.95 2.27,1.43 3.84,1.43 1.67,0 3.11,-0.48 4.33,-1.44l1.77 2.32c-1.81,1.28 -3.91,1.92 -6.3,1.92 -1.67,0 -3.1,-0.32 -4.28,-0.95 -1.17,-0.63 -2.12,-1.57 -2.83,-2.8 -0.71,-1.23 -1.07,-2.56 -1.07,-4 0,-1.53 0.42,-3.01 1.26,-4.42 0.84,-1.41 1.98,-2.52 3.42,-3.33 1.44,-0.81 3,-1.22 4.7,-1.22 2.38,0 4.45,0.82 6.19,2.46zm8.2 1.8c1.05,0 2,0.24 2.85,0.72 0.86,0.48 1.52,1.16 2,2.05 0.48,0.88 0.71,1.88 0.71,2.98 0,1.83 -0.65,3.39 -1.96,4.67 -1.31,1.28 -2.92,1.93 -4.85,1.93 -1.67,0 -3.01,-0.51 -4.01,-1.51 -0.99,-1.01 -1.49,-2.34 -1.49,-3.97 0,-1.97 0.68,-3.61 2.03,-4.91 1.35,-1.3 2.92,-1.95 4.72,-1.95zm-0.21 2.75c-1.19,0 -2.1,0.42 -2.73,1.27 -0.63,0.85 -0.95,1.76 -0.95,2.75 0,0.88 0.26,1.58 0.78,2.12 0.51,0.54 1.2,0.81 2.06,0.81 1.22,0 2.15,-0.41 2.79,-1.23 0.64,-0.82 0.96,-1.75 0.96,-2.8 0,-0.86 -0.27,-1.57 -0.81,-2.11 -0.54,-0.54 -1.24,-0.81 -2.1,-0.81zm8.88 -1.54c1.06,-0.81 2.21,-1.21 3.46,-1.21 1.12,0 2.01,0.27 2.68,0.8 0.67,0.54 1.01,1.26 1.01,2.17 0,0.55 -0.13,1.05 -0.38,1.49 -0.26,0.43 -0.8,0.84 -1.61,1.21 1.17,0.72 1.76,1.7 1.76,2.92 0,1.12 -0.4,2.03 -1.19,2.72 -0.79,0.69 -1.97,1.04 -3.54,1.04 -1.84,0 -3.22,-0.45 -4.15,-1.35l1.93 -2.07c0.62,0.52 1.27,0.78 1.93,0.78 0.52,0 0.95,-0.13 1.28,-0.4 0.33,-0.27 0.5,-0.55 0.5,-0.86 0,-0.29 -0.12,-0.59 -0.36,-0.9 -0.24,-0.31 -0.59,-0.46 -1.03,-0.46l-0.78 0 0.29 -2.11 0.59 0c0.51,0 0.91,-0.13 1.21,-0.38 0.3,-0.26 0.44,-0.57 0.44,-0.94 0,-0.34 -0.11,-0.61 -0.33,-0.81 -0.22,-0.2 -0.51,-0.3 -0.86,-0.3 -0.51,0 -1.16,0.23 -1.94,0.7l-0.88 -2.04zm10.47 10.85l-0.32 2.04 -2.77 0 0.62 -4.55 1.77 0 5.32 -9.27 1.9 0 2.88 9.27 1.81 0 -0.62 4.55 -2.83 0 0.28 -2.04 -8.03 0zm6.31 -2.51l-1.16 -5.56 -0.18 0 -2.65 5.56 3.99 0zm16.55 -9.27l2.91 0 -1.63 11.77 -2.89 0 0.17 -1.28c-0.63,0.58 -1.21,0.99 -1.76,1.22 -0.54,0.23 -1.15,0.35 -1.83,0.35 -1.56,0 -2.8,-0.57 -3.72,-1.71 -0.92,-1.15 -1.38,-2.48 -1.38,-3.99 0,-1.16 0.3,-2.26 0.88,-3.31 0.59,-1.05 1.38,-1.86 2.37,-2.45 0.99,-0.59 2.03,-0.88 3.11,-0.88 0.73,0 1.4,0.17 2.01,0.49 0.61,0.33 1.12,0.81 1.52,1.45l0.23 -1.66zm-4.35 9.49c0.71,0 1.33,-0.16 1.86,-0.47 0.53,-0.32 0.98,-0.81 1.33,-1.49 0.36,-0.68 0.54,-1.37 0.54,-2.07 0,-0.93 -0.27,-1.67 -0.81,-2.24 -0.54,-0.57 -1.25,-0.85 -2.14,-0.85 -1.03,0 -1.9,0.38 -2.62,1.13 -0.72,0.76 -1.08,1.73 -1.08,2.92 0,0.92 0.27,1.66 0.82,2.22 0.54,0.56 1.25,0.84 2.1,0.84zm9.21 -9.49l10.99 0 -0.38 2.82 -3.92 0 -1.22 8.96 -2.97 0 1.22 -8.96 -4.11 0 0.39 -2.82zm15.97 0l-0.58 4.26 0.88 0c1.8,0 3.04,0.34 3.69,1.01 0.66,0.67 0.99,1.52 0.99,2.52 0,0.72 -0.15,1.38 -0.45,1.98 -0.3,0.61 -0.67,1.05 -1.09,1.33 -0.43,0.28 -0.89,0.46 -1.37,0.54 -0.49,0.09 -1.3,0.13 -2.45,0.13l-4.16 0 1.61 -11.77 2.95 0zm-1.3 9.49l0.9 0c0.87,0 1.46,-0.13 1.78,-0.4 0.33,-0.27 0.49,-0.67 0.49,-1.2 0,-0.82 -0.52,-1.23 -1.56,-1.23l-1.22 0 -0.39 2.84zm15.59 -8.57c1.06,-0.81 2.21,-1.21 3.46,-1.21 1.12,0 2.01,0.27 2.68,0.8 0.67,0.54 1.01,1.26 1.01,2.17 0,0.55 -0.13,1.05 -0.38,1.49 -0.26,0.43 -0.8,0.84 -1.61,1.21 1.17,0.72 1.76,1.7 1.76,2.92 0,1.12 -0.4,2.03 -1.19,2.72 -0.79,0.69 -1.97,1.04 -3.54,1.04 -1.84,0 -3.22,-0.45 -4.15,-1.35l1.93 -2.07c0.62,0.52 1.27,0.78 1.93,0.78 0.52,0 0.95,-0.13 1.28,-0.4 0.33,-0.27 0.5,-0.55 0.5,-0.86 0,-0.29 -0.12,-0.59 -0.37,-0.9 -0.24,-0.31 -0.59,-0.46 -1.03,-0.46l-0.78 0 0.29 -2.11 0.59 0c0.51,0 0.91,-0.13 1.21,-0.38 0.3,-0.26 0.44,-0.57 0.44,-0.94 0,-0.34 -0.11,-0.61 -0.33,-0.81 -0.22,-0.2 -0.51,-0.3 -0.86,-0.3 -0.51,0 -1.16,0.23 -1.94,0.7l-0.88 -2.04zm19.31 -0.92l2.91 0 -1.63 11.77 -2.89 0 0.17 -1.28c-0.63,0.58 -1.21,0.99 -1.76,1.22 -0.54,0.23 -1.15,0.35 -1.83,0.35 -1.56,0 -2.8,-0.57 -3.72,-1.71 -0.92,-1.15 -1.38,-2.48 -1.38,-3.99 0,-1.16 0.3,-2.26 0.88,-3.31 0.59,-1.05 1.38,-1.86 2.37,-2.45 0.99,-0.59 2.03,-0.88 3.11,-0.88 0.73,0 1.4,0.17 2.01,0.49 0.61,0.33 1.12,0.81 1.52,1.45l0.23 -1.66zm-4.35 9.49c0.71,0 1.33,-0.16 1.86,-0.47 0.53,-0.32 0.98,-0.81 1.33,-1.49 0.36,-0.68 0.54,-1.37 0.54,-2.07 0,-0.93 -0.27,-1.67 -0.81,-2.24 -0.54,-0.57 -1.25,-0.85 -2.14,-0.85 -1.03,0 -1.9,0.38 -2.62,1.13 -0.72,0.76 -1.08,1.73 -1.08,2.92 0,0.92 0.27,1.66 0.82,2.22 0.54,0.56 1.25,0.84 2.1,0.84zm11.35 -2.58c-1.18,-0.66 -1.77,-1.63 -1.77,-2.93 0,-0.65 0.18,-1.29 0.55,-1.93 0.37,-0.64 0.81,-1.11 1.3,-1.41 0.5,-0.3 1.01,-0.49 1.53,-0.55 0.52,-0.06 1.51,-0.1 2.98,-0.1l2.98 0 -1.61 11.77 -2.97 0 0.58 -4.26 -0.89 0 -3.26 4.26 -3.34 0 3.91 -4.86zm3.88 -1.61l0.39 -2.84 -0.91 0c-1.29,0 -1.94,0.51 -1.94,1.54 0,0.47 0.15,0.81 0.44,1 0.3,0.2 0.73,0.29 1.29,0.29l0.72 0zm5.54 6.47l1.61 -11.77 4.57 0c1.18,0 2.07,0.28 2.68,0.85 0.61,0.56 0.92,1.24 0.92,2.02 0,1.28 -0.73,2.14 -2.18,2.58 1.56,0.62 2.34,1.63 2.34,3.03 0,2.2 -1.56,3.3 -4.69,3.3l-5.24 0zm3.91 -7.03l1.32 0c0.41,0 0.77,-0.13 1.09,-0.4 0.32,-0.27 0.48,-0.59 0.48,-0.98 0,-0.83 -0.52,-1.24 -1.57,-1.24l-0.97 0 -0.36 2.62zm-0.66 4.86l1.46 0c1.36,0 2.03,-0.45 2.03,-1.34 0,-1 -0.65,-1.5 -1.94,-1.5l-1.16 0 -0.38 2.84zm10.15 -9.6l2.96 0 -0.64 4.65 4.83 -4.65 3.68 0 -5.93 5.62 4.83 6.15 -3.76 0 -3.32 -4.28 -0.81 0.69 -0.49 3.58 -2.96 0 1.61 -11.77zm11.18 0l2.85 0 2.3 7 4.04 -7 3.1 0 -9.25 16.08 -3.05 0 3.36 -5.91 -3.34 -10.16z"/>
  </g>
 </g>
</svg>
